# MagicaVoxel @ Ephtracy

# group
o 

# material
mtllib castle 3 2-2.mtl
usemtl palette

# normals
vn -1 0 0
vn 1 0 0
vn 0 0 1
vn 0 0 -1
vn 0 -1 0
vn 0 1 0

# texcoords
vt 0.943359 0.5
vt 0.970703 0.5
vt 0.974609 0.5

# verts
v 3.2 -1.1 8.5
v 3.2 -1.1 6.3
v 3.2 -0.1 7.6
v 3.2 -0.1 6.3
v 3.2 0 8.5
v 3.2 0 7.6
v 3.2 0 6.3
v 8.4 0 8.5
v 8.4 0 8.3
v 8.4 0.1 8.5
v 8.4 0.1 8.3
v 8.5 0 8.3
v 8.5 0 7.8
v 8.5 0.1 8.3
v 8.5 0.1 7.8
v 8.6 0 7.8
v 8.6 0 7.3
v 8.6 0.1 7.8
v 8.6 0.1 7.3
v 8.7 0 7.3
v 8.7 0 7
v 8.7 0 6.5
v 8.7 0 6.3
v 8.7 0.1 7.3
v 8.7 0.1 7
v 8.7 0.1 6.5
v 8.7 0.1 6.3
v 8.8 0 7
v 8.8 0 6.5
v 8.8 0.1 7
v 8.8 0.1 6.5
v 9.5 0.1 6.5
v 9.5 0.1 6.3
v 9.5 0.2 6.5
v 9.5 0.2 6.3
v 9.6 0.1 7
v 9.6 0.1 6.5
v 9.6 0.2 7
v 9.6 0.2 6.5
v 9.7 0.1 8.5
v 9.7 0.1 8.2
v 9.7 0.1 7.7
v 9.7 0.1 7
v 9.7 0.2 8.5
v 9.7 0.2 8.2
v 9.7 0.2 7.7
v 9.7 0.2 7
v 9.8 0.1 8.2
v 9.8 0.1 7.7
v 9.8 0.2 8.2
v 9.8 0.2 7.7
v 15.8 -1.1 8.5
v 15.8 -1.1 6.3
v 15.8 0.2 8.5
v 15.8 0.2 6.3
v 3.2 -1.1 8.5
v 3.2 0 8.5
v 8.3 -0.1 8.5
v 8.3 0 8.5
v 8.4 -0.1 8.5
v 8.4 0 8.5
v 8.4 0.1 8.5
v 9.6 0 8.5
v 9.6 0.1 8.5
v 9.7 0 8.5
v 9.7 0.1 8.5
v 9.7 0.2 8.5
v 15.8 -1.1 8.5
v 15.8 0.2 8.5
v 9.7 0.1 7.7
v 9.7 0.2 7.7
v 9.8 0.1 7.7
v 9.8 0.2 7.7
v 9.6 0.1 7
v 9.6 0.2 7
v 9.7 0.1 7
v 9.7 0.2 7
v 8.7 0 6.5
v 8.7 0.1 6.5
v 8.8 0 6.5
v 8.8 0.1 6.5
v 9.5 0.1 6.5
v 9.5 0.2 6.5
v 9.6 0.1 6.5
v 9.6 0.2 6.5
v 8.4 0 8.3
v 8.4 0.1 8.3
v 8.5 0 8.3
v 8.5 0.1 8.3
v 9.7 0.1 8.2
v 9.7 0.2 8.2
v 9.8 0.1 8.2
v 9.8 0.2 8.2
v 8.5 0 7.8
v 8.5 0.1 7.8
v 8.6 0 7.8
v 8.6 0.1 7.8
v 8.6 0 7.3
v 8.6 0.1 7.3
v 8.7 0 7.3
v 8.7 0.1 7.3
v 8.7 0 7
v 8.7 0.1 7
v 8.8 0 7
v 8.8 0.1 7
v 3.2 -1.1 6.3
v 3.2 -0.1 6.3
v 3.2 0 6.3
v 4.2 -0.1 6.3
v 4.2 0 6.3
v 8.5 -0.1 6.3
v 8.5 0 6.3
v 8.7 -0.1 6.3
v 8.7 0 6.3
v 8.7 0.1 6.3
v 9.4 0 6.3
v 9.4 0.1 6.3
v 9.5 0 6.3
v 9.5 0.1 6.3
v 9.5 0.2 6.3
v 15.4 -0.1 6.3
v 15.4 0 6.3
v 15.7 -0.1 6.3
v 15.7 0 6.3
v 15.8 -1.1 6.3
v 15.8 0.2 6.3
v 3.2 -1.1 8.5
v 15.8 -1.1 8.5
v 3.2 -1.1 6.3
v 15.8 -1.1 6.3
v 3.2 0 8.5
v 8.3 0 8.5
v 8.4 0 8.5
v 8.4 0 8.3
v 8.5 0 8.3
v 8.3 0 8.1
v 8.4 0 8.1
v 8.5 0 7.8
v 8.6 0 7.8
v 3.2 0 7.6
v 3.3 0 7.6
v 8.4 0 7.5
v 8.5 0 7.5
v 8.6 0 7.3
v 8.7 0 7.3
v 8.5 0 7.1
v 8.6 0 7.1
v 8.7 0 7
v 8.8 0 7
v 3.3 0 6.9
v 3.4 0 6.9
v 3.4 0 6.7
v 3.5 0 6.7
v 3.5 0 6.6
v 3.6 0 6.6
v 3.6 0 6.5
v 3.9 0 6.5
v 8.7 0 6.5
v 8.8 0 6.5
v 3.9 0 6.4
v 4.2 0 6.4
v 8.5 0 6.4
v 8.6 0 6.4
v 3.2 0 6.3
v 4.2 0 6.3
v 8.5 0 6.3
v 8.7 0 6.3
v 8.4 0.1 8.5
v 9.6 0.1 8.5
v 9.7 0.1 8.5
v 8.4 0.1 8.3
v 8.5 0.1 8.3
v 9.7 0.1 8.2
v 9.8 0.1 8.2
v 8.5 0.1 7.8
v 8.6 0.1 7.8
v 9.7 0.1 7.7
v 9.8 0.1 7.7
v 8.6 0.1 7.3
v 8.7 0.1 7.3
v 9.5 0.1 7.2
v 9.6 0.1 7.2
v 8.7 0.1 7
v 8.8 0.1 7
v 9.6 0.1 7
v 9.7 0.1 7
v 9.4 0.1 6.6
v 9.5 0.1 6.6
v 8.7 0.1 6.5
v 8.8 0.1 6.5
v 9.5 0.1 6.5
v 9.6 0.1 6.5
v 8.7 0.1 6.3
v 9.4 0.1 6.3
v 9.5 0.1 6.3
v 9.7 0.2 8.5
v 15.8 0.2 8.5
v 9.7 0.2 8.2
v 9.8 0.2 8.2
v 9.7 0.2 7.7
v 9.8 0.2 7.7
v 9.6 0.2 7
v 9.7 0.2 7
v 9.5 0.2 6.5
v 9.6 0.2 6.5
v 9.5 0.2 6.3
v 15.8 0.2 6.3

# faces
f 3/3/1 2/3/1 1/3/1
f 4/3/1 2/3/1 3/3/1
f 5/3/1 3/3/1 1/3/1
f 6/2/1 4/2/1 3/2/1
f 6/3/1 3/3/1 5/3/1
f 7/2/1 4/2/1 6/2/1
f 10/3/1 9/3/1 8/3/1
f 11/3/1 9/3/1 10/3/1
f 14/3/1 13/3/1 12/3/1
f 15/3/1 13/3/1 14/3/1
f 18/3/1 17/3/1 16/3/1
f 19/3/1 17/3/1 18/3/1
f 24/3/1 21/3/1 20/3/1
f 25/3/1 21/3/1 24/3/1
f 26/3/1 23/3/1 22/3/1
f 27/3/1 23/3/1 26/3/1
f 30/3/1 29/3/1 28/3/1
f 31/3/1 29/3/1 30/3/1
f 34/3/1 33/3/1 32/3/1
f 35/3/1 33/3/1 34/3/1
f 38/3/1 37/3/1 36/3/1
f 39/3/1 37/3/1 38/3/1
f 44/3/1 41/3/1 40/3/1
f 45/3/1 41/3/1 44/3/1
f 46/3/1 43/3/1 42/3/1
f 47/3/1 43/3/1 46/3/1
f 50/3/1 49/3/1 48/3/1
f 51/3/1 49/3/1 50/3/1
f 52/3/2 53/3/2 54/3/2
f 54/3/2 53/3/2 55/3/2
f 58/3/3 57/3/3 56/3/3
f 59/3/3 57/3/3 58/3/3
f 60/3/3 58/3/3 56/3/3
f 60/1/3 59/1/3 58/1/3
f 61/1/3 59/1/3 60/1/3
f 63/3/3 61/3/3 60/3/3
f 63/3/3 62/3/3 61/3/3
f 64/3/3 62/3/3 63/3/3
f 65/3/3 63/3/3 60/3/3
f 65/1/3 64/1/3 63/1/3
f 66/1/3 64/1/3 65/1/3
f 68/3/3 60/3/3 56/3/3
f 68/3/3 67/3/3 66/3/3
f 68/3/3 65/3/3 60/3/3
f 68/3/3 66/3/3 65/3/3
f 69/3/3 67/3/3 68/3/3
f 72/3/3 71/3/3 70/3/3
f 73/3/3 71/3/3 72/3/3
f 76/3/3 75/3/3 74/3/3
f 77/3/3 75/3/3 76/3/3
f 80/3/3 79/3/3 78/3/3
f 81/3/3 79/3/3 80/3/3
f 84/3/3 83/3/3 82/3/3
f 85/3/3 83/3/3 84/3/3
f 86/3/4 87/3/4 88/3/4
f 88/3/4 87/3/4 89/3/4
f 90/3/4 91/3/4 92/3/4
f 92/3/4 91/3/4 93/3/4
f 94/3/4 95/3/4 96/3/4
f 96/3/4 95/3/4 97/3/4
f 98/3/4 99/3/4 100/3/4
f 100/3/4 99/3/4 101/3/4
f 102/3/4 103/3/4 104/3/4
f 104/3/4 103/3/4 105/3/4
f 106/3/4 107/3/4 109/3/4
f 107/2/4 108/2/4 109/2/4
f 109/2/4 108/2/4 110/2/4
f 106/3/4 109/3/4 111/3/4
f 109/3/4 110/3/4 111/3/4
f 111/3/4 110/3/4 112/3/4
f 106/3/4 111/3/4 113/3/4
f 111/1/4 112/1/4 113/1/4
f 113/1/4 112/1/4 114/1/4
f 113/3/4 114/3/4 116/3/4
f 114/3/4 115/3/4 116/3/4
f 116/3/4 115/3/4 117/3/4
f 113/3/4 116/3/4 118/3/4
f 116/1/4 117/1/4 118/1/4
f 118/1/4 117/1/4 119/1/4
f 106/3/4 113/3/4 121/3/4
f 119/3/4 120/3/4 121/3/4
f 113/3/4 118/3/4 121/3/4
f 118/3/4 119/3/4 121/3/4
f 121/3/4 120/3/4 122/3/4
f 106/3/4 121/3/4 123/3/4
f 121/2/4 122/2/4 123/2/4
f 122/3/4 120/3/4 124/3/4
f 123/2/4 122/2/4 124/2/4
f 106/3/4 123/3/4 125/3/4
f 123/3/4 124/3/4 125/3/4
f 124/3/4 120/3/4 126/3/4
f 125/3/4 124/3/4 126/3/4
f 129/3/5 128/3/5 127/3/5
f 130/3/5 128/3/5 129/3/5
f 132/1/6 133/1/6 134/1/6
f 131/3/6 132/3/6 136/3/6
f 134/1/6 135/1/6 136/1/6
f 132/1/6 134/1/6 136/1/6
f 136/1/6 135/1/6 137/1/6
f 137/1/6 135/1/6 138/1/6
f 131/3/6 136/3/6 140/3/6
f 136/3/6 137/3/6 140/3/6
f 140/3/6 137/3/6 141/3/6
f 138/1/6 139/1/6 142/1/6
f 141/3/6 137/3/6 142/3/6
f 137/1/6 138/1/6 142/1/6
f 142/1/6 139/1/6 143/1/6
f 143/1/6 139/1/6 144/1/6
f 142/3/6 143/3/6 146/3/6
f 144/1/6 145/1/6 146/1/6
f 143/1/6 144/1/6 146/1/6
f 146/1/6 145/1/6 147/1/6
f 147/1/6 145/1/6 148/1/6
f 140/2/6 141/2/6 150/2/6
f 141/3/6 142/3/6 150/3/6
f 142/3/6 146/3/6 150/3/6
f 146/3/6 147/3/6 150/3/6
f 150/3/6 147/3/6 151/3/6
f 150/2/6 151/2/6 152/2/6
f 151/3/6 147/3/6 152/3/6
f 152/3/6 147/3/6 153/3/6
f 152/2/6 153/2/6 154/2/6
f 153/3/6 147/3/6 154/3/6
f 154/3/6 147/3/6 155/3/6
f 154/2/6 155/2/6 156/2/6
f 155/3/6 147/3/6 156/3/6
f 156/3/6 147/3/6 157/3/6
f 148/1/6 149/1/6 158/1/6
f 147/1/6 148/1/6 158/1/6
f 158/1/6 149/1/6 159/1/6
f 157/3/6 147/3/6 160/3/6
f 156/2/6 157/2/6 160/2/6
f 160/3/6 147/3/6 161/3/6
f 161/3/6 147/3/6 162/3/6
f 147/1/6 158/1/6 163/1/6
f 162/3/6 147/3/6 163/3/6
f 140/2/6 150/2/6 164/2/6
f 150/2/6 152/2/6 164/2/6
f 152/2/6 154/2/6 164/2/6
f 160/2/6 161/2/6 164/2/6
f 156/2/6 160/2/6 164/2/6
f 154/2/6 156/2/6 164/2/6
f 161/3/6 162/3/6 165/3/6
f 164/2/6 161/2/6 165/2/6
f 162/1/6 163/1/6 166/1/6
f 165/3/6 162/3/6 166/3/6
f 163/1/6 158/1/6 167/1/6
f 166/1/6 163/1/6 167/1/6
f 168/3/6 169/3/6 171/3/6
f 171/3/6 169/3/6 172/3/6
f 169/1/6 170/1/6 173/1/6
f 172/3/6 169/3/6 175/3/6
f 175/3/6 169/3/6 176/3/6
f 173/1/6 174/1/6 177/1/6
f 169/1/6 173/1/6 177/1/6
f 177/1/6 174/1/6 178/1/6
f 176/3/6 169/3/6 179/3/6
f 179/3/6 169/3/6 180/3/6
f 180/3/6 169/3/6 181/3/6
f 169/1/6 177/1/6 182/1/6
f 181/3/6 169/3/6 182/3/6
f 180/3/6 181/3/6 183/3/6
f 183/3/6 181/3/6 184/3/6
f 182/1/6 177/1/6 185/1/6
f 181/1/6 182/1/6 185/1/6
f 185/1/6 177/1/6 186/1/6
f 184/3/6 181/3/6 187/3/6
f 181/1/6 185/1/6 188/1/6
f 187/3/6 181/3/6 188/3/6
f 184/3/6 187/3/6 190/3/6
f 188/1/6 185/1/6 191/1/6
f 187/1/6 188/1/6 191/1/6
f 191/1/6 185/1/6 192/1/6
f 189/3/6 190/3/6 193/3/6
f 190/3/6 187/3/6 194/3/6
f 193/3/6 190/3/6 194/3/6
f 187/1/6 191/1/6 194/1/6
f 194/1/6 191/1/6 195/1/6
f 196/3/6 197/3/6 198/3/6
f 198/3/6 197/3/6 199/3/6
f 199/3/6 197/3/6 201/3/6
f 200/3/6 201/3/6 203/3/6
f 202/3/6 203/3/6 205/3/6
f 204/3/6 205/3/6 206/3/6
f 201/3/6 197/3/6 207/3/6
f 206/3/6 205/3/6 207/3/6
f 203/3/6 201/3/6 207/3/6
f 205/3/6 203/3/6 207/3/6
