# MagicaVoxel @ Ephtracy

# group
o 

# material
mtllib grasslandtest1.mtl
usemtl palette

# normals
vn -1 0 0
vn 1 0 0
vn 0 0 1
vn 0 0 -1
vn 0 -1 0
vn 0 1 0

# texcoords
vt 0.0214844 0.5
vt 0.0917969 0.5
vt 0.427734 0.5
vt 0.876953 0.5
vt 0.892578 0.5

# verts
v 0 2 0
v 0 2 -8
v 0 2.3 0
v 0 2.3 -8
v 0 2.4 0
v 0 2.4 -8
v 5.7 2.4 -4.2
v 5.7 2.4 -4.3
v 5.7 2.5 -4.2
v 5.7 2.5 -4.3
v 9.3 2.4 -2.9
v 9.3 2.4 -3
v 9.3 2.5 -2.9
v 9.3 2.5 -3
v 9.5 2.4 -3
v 9.5 2.4 -3.2
v 9.5 2.7 -3
v 9.5 2.7 -3.2
v 9.8 2.4 -2.3
v 9.8 2.4 -3.4
v 9.8 3.2 -2.3
v 9.8 3.2 -3.4
v 5.8 2.4 -4.2
v 5.8 2.4 -4.3
v 5.8 2.5 -4.2
v 5.8 2.5 -4.3
v 9.4 2.4 -2.9
v 9.4 2.4 -3
v 9.4 2.5 -2.9
v 9.4 2.5 -3
v 9.6 2.4 -3
v 9.6 2.4 -3.2
v 9.6 2.7 -3
v 9.6 2.7 -3.2
v 9.9 2.4 -2.3
v 9.9 2.4 -3.4
v 9.9 3.2 -2.3
v 9.9 3.2 -3.4
v 12.6 2 0
v 12.6 2 -8
v 12.6 2.3 0
v 12.6 2.3 -8
v 12.6 2.4 0
v 12.6 2.4 -8
v 0 2 0
v 0 2.3 0
v 0 2.4 0
v 12.6 2 0
v 12.6 2.3 0
v 12.6 2.4 0
v 9.8 2.4 -2.3
v 9.8 3.2 -2.3
v 9.9 2.4 -2.3
v 9.9 3.2 -2.3
v 9.3 2.4 -2.9
v 9.3 2.5 -2.9
v 9.4 2.4 -2.9
v 9.4 2.5 -2.9
v 9.5 2.4 -3
v 9.5 2.7 -3
v 9.6 2.4 -3
v 9.6 2.7 -3
v 5.7 2.4 -4.2
v 5.7 2.5 -4.2
v 5.8 2.4 -4.2
v 5.8 2.5 -4.2
v 9.3 2.4 -3
v 9.3 2.5 -3
v 9.4 2.4 -3
v 9.4 2.5 -3
v 9.5 2.4 -3.2
v 9.5 2.7 -3.2
v 9.6 2.4 -3.2
v 9.6 2.7 -3.2
v 9.8 2.4 -3.4
v 9.8 3.2 -3.4
v 9.9 2.4 -3.4
v 9.9 3.2 -3.4
v 5.7 2.4 -4.3
v 5.7 2.5 -4.3
v 5.8 2.4 -4.3
v 5.8 2.5 -4.3
v 0 2 -8
v 0 2.3 -8
v 0 2.4 -8
v 12.6 2 -8
v 12.6 2.3 -8
v 12.6 2.4 -8
v 0 2 0
v 12.6 2 0
v 0 2 -8
v 12.6 2 -8
v 0 2.4 0
v 12.6 2.4 0
v 9 2.4 -1.4
v 9.3 2.4 -1.4
v 8.4 2.4 -1.5
v 9 2.4 -1.5
v 9.3 2.4 -1.5
v 9.6 2.4 -1.5
v 7.9 2.4 -1.6
v 8.4 2.4 -1.6
v 9 2.4 -1.6
v 9.3 2.4 -1.6
v 9.6 2.4 -1.6
v 9.8 2.4 -1.6
v 3.4 2.4 -1.7
v 3.8 2.4 -1.7
v 7.3 2.4 -1.7
v 7.9 2.4 -1.7
v 8.4 2.4 -1.7
v 9.6 2.4 -1.7
v 9.8 2.4 -1.7
v 9.9 2.4 -1.7
v 3.2 2.4 -1.8
v 3.4 2.4 -1.8
v 3.7 2.4 -1.8
v 7.2 2.4 -1.8
v 7.3 2.4 -1.8
v 7.9 2.4 -1.8
v 9.8 2.4 -1.8
v 9.9 2.4 -1.8
v 10 2.4 -1.8
v 3 2.4 -1.9
v 3.2 2.4 -1.9
v 3.3 2.4 -1.9
v 3.4 2.4 -1.9
v 3.7 2.4 -1.9
v 3.8 2.4 -1.9
v 3.9 2.4 -1.9
v 7.1 2.4 -1.9
v 7.2 2.4 -1.9
v 7.3 2.4 -1.9
v 9.9 2.4 -1.9
v 10 2.4 -1.9
v 10.1 2.4 -1.9
v 2.7 2.4 -2
v 3 2.4 -2
v 3.3 2.4 -2
v 3.8 2.4 -2
v 3.9 2.4 -2
v 4 2.4 -2
v 7 2.4 -2
v 7.1 2.4 -2
v 7.2 2.4 -2
v 10.1 2.4 -2
v 10.2 2.4 -2
v 2.6 2.4 -2.1
v 2.7 2.4 -2.1
v 3 2.4 -2.1
v 6.9 2.4 -2.1
v 7 2.4 -2.1
v 7.1 2.4 -2.1
v 10 2.4 -2.1
v 10.1 2.4 -2.1
v 2.5 2.4 -2.2
v 2.6 2.4 -2.2
v 2.7 2.4 -2.2
v 3.9 2.4 -2.2
v 4 2.4 -2.2
v 4.1 2.4 -2.2
v 6.8 2.4 -2.2
v 6.9 2.4 -2.2
v 2.4 2.4 -2.3
v 2.5 2.4 -2.3
v 2.6 2.4 -2.3
v 4 2.4 -2.3
v 4.1 2.4 -2.3
v 4.2 2.4 -2.3
v 6.7 2.4 -2.3
v 6.8 2.4 -2.3
v 7 2.4 -2.3
v 9.8 2.4 -2.3
v 9.9 2.4 -2.3
v 10.1 2.4 -2.3
v 10.2 2.4 -2.3
v 10.3 2.4 -2.3
v 6.6 2.4 -2.4
v 6.7 2.4 -2.4
v 6.8 2.4 -2.4
v 2.3 2.4 -2.5
v 2.4 2.4 -2.5
v 2.5 2.4 -2.5
v 2.2 2.4 -2.6
v 2.3 2.4 -2.6
v 2.4 2.4 -2.6
v 4.1 2.4 -2.6
v 4.2 2.4 -2.6
v 4.3 2.4 -2.6
v 6.5 2.4 -2.6
v 6.6 2.4 -2.6
v 6.7 2.4 -2.6
v 10.2 2.4 -2.6
v 10.3 2.4 -2.6
v 10.4 2.4 -2.6
v 4.2 2.4 -2.7
v 4.3 2.4 -2.7
v 4.4 2.4 -2.7
v 6.4 2.4 -2.7
v 6.5 2.4 -2.7
v 6.6 2.4 -2.7
v 2.1 2.4 -2.8
v 2.2 2.4 -2.8
v 2.3 2.4 -2.8
v 4.3 2.4 -2.8
v 4.4 2.4 -2.8
v 4.5 2.4 -2.8
v 6.2 2.4 -2.9
v 6.4 2.4 -2.9
v 6.5 2.4 -2.9
v 9.3 2.4 -2.9
v 9.4 2.4 -2.9
v 10.3 2.4 -2.9
v 10.4 2.4 -2.9
v 10.5 2.4 -2.9
v 4.5 2.4 -3
v 4.6 2.4 -3
v 6.1 2.4 -3
v 6.2 2.4 -3
v 6.4 2.4 -3
v 9.3 2.4 -3
v 9.4 2.4 -3
v 9.5 2.4 -3
v 9.6 2.4 -3
v 10.3 2.4 -3
v 10.4 2.4 -3
v 10.5 2.4 -3
v 4.4 2.4 -3.1
v 4.6 2.4 -3.1
v 4.7 2.4 -3.1
v 6 2.4 -3.1
v 6.1 2.4 -3.1
v 6.2 2.4 -3.1
v 10.3 2.4 -3.1
v 10.4 2.4 -3.1
v 10.5 2.4 -3.1
v 4.6 2.4 -3.2
v 4.7 2.4 -3.2
v 4.8 2.4 -3.2
v 5.9 2.4 -3.2
v 6 2.4 -3.2
v 6.1 2.4 -3.2
v 9.5 2.4 -3.2
v 9.6 2.4 -3.2
v 4.7 2.4 -3.3
v 4.8 2.4 -3.3
v 5.1 2.4 -3.3
v 5.7 2.4 -3.3
v 5.9 2.4 -3.3
v 6 2.4 -3.3
v 4.8 2.4 -3.4
v 5.1 2.4 -3.4
v 5.7 2.4 -3.4
v 5.9 2.4 -3.4
v 9.8 2.4 -3.4
v 9.9 2.4 -3.4
v 5.1 2.4 -3.5
v 5.7 2.4 -3.5
v 2.1 2.4 -4
v 2.2 2.4 -4
v 2.3 2.4 -4
v 10.3 2.4 -4
v 10.4 2.4 -4
v 10.5 2.4 -4
v 2.2 2.4 -4.1
v 2.3 2.4 -4.1
v 2.4 2.4 -4.1
v 2.3 2.4 -4.2
v 2.4 2.4 -4.2
v 2.5 2.4 -4.2
v 5.7 2.4 -4.2
v 5.8 2.4 -4.2
v 10.3 2.4 -4.2
v 10.4 2.4 -4.2
v 5.7 2.4 -4.3
v 5.8 2.4 -4.3
v 10.3 2.4 -4.3
v 10.4 2.4 -4.3
v 2.4 2.4 -4.4
v 2.5 2.4 -4.4
v 2.6 2.4 -4.4
v 2.5 2.4 -4.5
v 2.6 2.4 -4.5
v 2.7 2.4 -4.5
v 10.2 2.4 -4.5
v 10.3 2.4 -4.5
v 10.4 2.4 -4.5
v 2.6 2.4 -4.6
v 2.7 2.4 -4.6
v 2.8 2.4 -4.6
v 10.1 2.4 -4.6
v 10.2 2.4 -4.6
v 10.3 2.4 -4.6
v 2.7 2.4 -4.7
v 2.8 2.4 -4.7
v 2.9 2.4 -4.7
v 9.9 2.4 -4.7
v 10.1 2.4 -4.7
v 10.2 2.4 -4.7
v 9.6 2.4 -4.8
v 9.9 2.4 -4.8
v 10.1 2.4 -4.8
v 2.8 2.4 -4.9
v 2.9 2.4 -4.9
v 3 2.4 -4.9
v 9.4 2.4 -4.9
v 9.6 2.4 -4.9
v 9.9 2.4 -4.9
v 2.9 2.4 -5
v 3 2.4 -5
v 3.1 2.4 -5
v 8.9 2.4 -5
v 9.4 2.4 -5
v 9.6 2.4 -5
v 3 2.4 -5.1
v 3.1 2.4 -5.1
v 3.2 2.4 -5.1
v 8.8 2.4 -5.1
v 8.9 2.4 -5.1
v 9.4 2.4 -5.1
v 3.1 2.4 -5.2
v 3.2 2.4 -5.2
v 3.3 2.4 -5.2
v 8.6 2.4 -5.2
v 8.8 2.4 -5.2
v 8.9 2.4 -5.2
v 3.2 2.4 -5.3
v 3.3 2.4 -5.3
v 3.4 2.4 -5.3
v 8.5 2.4 -5.3
v 8.6 2.4 -5.3
v 8.8 2.4 -5.3
v 3.3 2.4 -5.4
v 3.4 2.4 -5.4
v 3.5 2.4 -5.4
v 8.3 2.4 -5.4
v 8.5 2.4 -5.4
v 8.6 2.4 -5.4
v 3.4 2.4 -5.5
v 3.5 2.4 -5.5
v 3.6 2.4 -5.5
v 8 2.4 -5.5
v 8.3 2.4 -5.5
v 8.5 2.4 -5.5
v 3.5 2.4 -5.6
v 3.6 2.4 -5.6
v 3.8 2.4 -5.6
v 7.7 2.4 -5.6
v 8 2.4 -5.6
v 8.3 2.4 -5.6
v 3.6 2.4 -5.7
v 3.8 2.4 -5.7
v 3.9 2.4 -5.7
v 7.5 2.4 -5.7
v 7.7 2.4 -5.7
v 8 2.4 -5.7
v 3.8 2.4 -5.8
v 3.9 2.4 -5.8
v 4.1 2.4 -5.8
v 7.1 2.4 -5.8
v 7.5 2.4 -5.8
v 7.7 2.4 -5.8
v 3.9 2.4 -5.9
v 4.1 2.4 -5.9
v 4.2 2.4 -5.9
v 6.7 2.4 -5.9
v 7.1 2.4 -5.9
v 7.5 2.4 -5.9
v 6.5 2.4 -6
v 6.7 2.4 -6
v 7.1 2.4 -6
v 4.1 2.4 -6.1
v 4.2 2.4 -6.1
v 4.3 2.4 -6.1
v 6.1 2.4 -6.1
v 6.5 2.4 -6.1
v 6.7 2.4 -6.1
v 4.2 2.4 -6.2
v 4.3 2.4 -6.2
v 4.4 2.4 -6.2
v 5.6 2.4 -6.2
v 6.1 2.4 -6.2
v 6.5 2.4 -6.2
v 4.3 2.4 -6.3
v 4.4 2.4 -6.3
v 5.6 2.4 -6.3
v 6.1 2.4 -6.3
v 4.4 2.4 -6.4
v 5.6 2.4 -6.4
v 0 2.4 -8
v 12.6 2.4 -8
v 9.3 2.5 -2.9
v 9.4 2.5 -2.9
v 9.3 2.5 -3
v 9.4 2.5 -3
v 5.7 2.5 -4.2
v 5.8 2.5 -4.2
v 5.7 2.5 -4.3
v 5.8 2.5 -4.3
v 9.5 2.7 -3
v 9.6 2.7 -3
v 9.5 2.7 -3.2
v 9.6 2.7 -3.2
v 9.8 3.2 -2.3
v 9.9 3.2 -2.3
v 9.8 3.2 -3.4
v 9.9 3.2 -3.4

# faces
f 3/2/1 2/2/1 1/2/1
f 4/2/1 2/2/1 3/2/1
f 5/5/1 4/5/1 3/5/1
f 6/5/1 4/5/1 5/5/1
f 9/1/1 8/1/1 7/1/1
f 10/1/1 8/1/1 9/1/1
f 13/1/1 12/1/1 11/1/1
f 14/1/1 12/1/1 13/1/1
f 17/4/1 16/4/1 15/4/1
f 18/4/1 16/4/1 17/4/1
f 21/3/1 20/3/1 19/3/1
f 22/3/1 20/3/1 21/3/1
f 23/1/2 24/1/2 25/1/2
f 25/1/2 24/1/2 26/1/2
f 27/1/2 28/1/2 29/1/2
f 29/1/2 28/1/2 30/1/2
f 31/4/2 32/4/2 33/4/2
f 33/4/2 32/4/2 34/4/2
f 35/3/2 36/3/2 37/3/2
f 37/3/2 36/3/2 38/3/2
f 39/2/2 40/2/2 41/2/2
f 41/2/2 40/2/2 42/2/2
f 41/5/2 42/5/2 43/5/2
f 43/5/2 42/5/2 44/5/2
f 48/2/3 46/2/3 45/2/3
f 49/5/3 47/5/3 46/5/3
f 49/2/3 46/2/3 48/2/3
f 50/5/3 47/5/3 49/5/3
f 53/3/3 52/3/3 51/3/3
f 54/3/3 52/3/3 53/3/3
f 57/1/3 56/1/3 55/1/3
f 58/1/3 56/1/3 57/1/3
f 61/4/3 60/4/3 59/4/3
f 62/4/3 60/4/3 61/4/3
f 65/1/3 64/1/3 63/1/3
f 66/1/3 64/1/3 65/1/3
f 67/1/4 68/1/4 69/1/4
f 69/1/4 68/1/4 70/1/4
f 71/4/4 72/4/4 73/4/4
f 73/4/4 72/4/4 74/4/4
f 75/3/4 76/3/4 77/3/4
f 77/3/4 76/3/4 78/3/4
f 79/1/4 80/1/4 81/1/4
f 81/1/4 80/1/4 82/1/4
f 83/2/4 84/2/4 86/2/4
f 84/5/4 85/5/4 87/5/4
f 86/2/4 84/2/4 87/2/4
f 87/5/4 85/5/4 88/5/4
f 91/2/5 90/2/5 89/2/5
f 92/2/5 90/2/5 91/2/5
f 93/5/6 94/5/6 95/5/6
f 95/5/6 94/5/6 96/5/6
f 93/5/6 95/5/6 97/5/6
f 95/2/6 96/2/6 98/2/6
f 97/5/6 95/5/6 98/5/6
f 96/5/6 94/5/6 99/5/6
f 98/2/6 96/2/6 99/2/6
f 99/5/6 94/5/6 100/5/6
f 93/5/6 97/5/6 101/5/6
f 97/2/6 98/2/6 102/2/6
f 101/5/6 97/5/6 102/5/6
f 98/5/6 99/5/6 103/5/6
f 102/2/6 98/2/6 103/2/6
f 99/2/6 100/2/6 104/2/6
f 103/5/6 99/5/6 104/5/6
f 100/5/6 94/5/6 105/5/6
f 104/2/6 100/2/6 105/2/6
f 105/5/6 94/5/6 106/5/6
f 93/5/6 101/5/6 107/5/6
f 107/5/6 101/5/6 108/5/6
f 108/5/6 101/5/6 109/5/6
f 101/2/6 102/2/6 110/2/6
f 109/5/6 101/5/6 110/5/6
f 103/5/6 104/5/6 111/5/6
f 110/2/6 102/2/6 111/2/6
f 102/5/6 103/5/6 111/5/6
f 104/5/6 105/5/6 111/5/6
f 105/2/6 106/2/6 112/2/6
f 111/5/6 105/5/6 112/5/6
f 106/5/6 94/5/6 113/5/6
f 112/2/6 106/2/6 113/2/6
f 113/5/6 94/5/6 114/5/6
f 93/5/6 107/5/6 115/5/6
f 107/2/6 108/2/6 116/2/6
f 115/5/6 107/5/6 116/5/6
f 116/2/6 108/2/6 117/2/6
f 108/5/6 109/5/6 118/5/6
f 109/2/6 110/2/6 119/2/6
f 118/5/6 109/5/6 119/5/6
f 111/5/6 112/5/6 120/5/6
f 119/2/6 110/2/6 120/2/6
f 110/5/6 111/5/6 120/5/6
f 112/5/6 113/5/6 120/5/6
f 113/2/6 114/2/6 121/2/6
f 120/5/6 113/5/6 121/5/6
f 114/5/6 94/5/6 122/5/6
f 121/2/6 114/2/6 122/2/6
f 122/5/6 94/5/6 123/5/6
f 93/5/6 115/5/6 124/5/6
f 115/2/6 116/2/6 125/2/6
f 124/5/6 115/5/6 125/5/6
f 125/2/6 116/2/6 126/2/6
f 116/5/6 117/5/6 127/5/6
f 126/2/6 116/2/6 127/2/6
f 117/2/6 108/2/6 128/2/6
f 127/5/6 117/5/6 128/5/6
f 108/5/6 118/5/6 129/5/6
f 128/2/6 108/2/6 129/2/6
f 129/5/6 118/5/6 130/5/6
f 130/5/6 118/5/6 131/5/6
f 118/2/6 119/2/6 132/2/6
f 131/5/6 118/5/6 132/5/6
f 120/5/6 121/5/6 133/5/6
f 132/2/6 119/2/6 133/2/6
f 119/5/6 120/5/6 133/5/6
f 121/5/6 122/5/6 133/5/6
f 122/2/6 123/2/6 134/2/6
f 133/5/6 122/5/6 134/5/6
f 123/5/6 94/5/6 135/5/6
f 134/2/6 123/2/6 135/2/6
f 135/5/6 94/5/6 136/5/6
f 93/5/6 124/5/6 137/5/6
f 125/2/6 126/2/6 138/2/6
f 137/5/6 124/5/6 138/5/6
f 124/2/6 125/2/6 138/2/6
f 127/5/6 128/5/6 139/5/6
f 138/2/6 126/2/6 139/2/6
f 126/5/6 127/5/6 139/5/6
f 128/5/6 129/5/6 139/5/6
f 129/2/6 130/2/6 140/2/6
f 139/5/6 129/5/6 140/5/6
f 130/5/6 131/5/6 141/5/6
f 140/2/6 130/2/6 141/2/6
f 141/5/6 131/5/6 142/5/6
f 142/5/6 131/5/6 143/5/6
f 131/2/6 132/2/6 144/2/6
f 143/5/6 131/5/6 144/5/6
f 134/5/6 135/5/6 145/5/6
f 144/2/6 132/2/6 145/2/6
f 133/5/6 134/5/6 145/5/6
f 132/5/6 133/5/6 145/5/6
f 136/5/6 94/5/6 146/5/6
f 135/2/6 136/2/6 146/2/6
f 146/5/6 94/5/6 147/5/6
f 93/5/6 137/5/6 148/5/6
f 137/2/6 138/2/6 149/2/6
f 148/5/6 137/5/6 149/5/6
f 139/5/6 140/5/6 150/5/6
f 149/2/6 138/2/6 150/2/6
f 138/5/6 139/5/6 150/5/6
f 140/5/6 141/5/6 150/5/6
f 142/5/6 143/5/6 151/5/6
f 143/2/6 144/2/6 152/2/6
f 151/5/6 143/5/6 152/5/6
f 144/5/6 145/5/6 153/5/6
f 152/2/6 144/2/6 153/2/6
f 145/5/6 135/5/6 154/5/6
f 153/5/6 145/5/6 154/5/6
f 146/2/6 147/2/6 154/2/6
f 135/2/6 146/2/6 154/2/6
f 154/2/6 147/2/6 155/2/6
f 93/5/6 148/5/6 156/5/6
f 148/2/6 149/2/6 157/2/6
f 156/5/6 148/5/6 157/5/6
f 149/5/6 150/5/6 158/5/6
f 157/2/6 149/2/6 158/2/6
f 141/2/6 142/2/6 159/2/6
f 158/5/6 150/5/6 159/5/6
f 150/5/6 141/5/6 159/5/6
f 142/5/6 151/5/6 160/5/6
f 159/2/6 142/2/6 160/2/6
f 160/5/6 151/5/6 161/5/6
f 161/5/6 151/5/6 162/5/6
f 151/2/6 152/2/6 163/2/6
f 162/5/6 151/5/6 163/5/6
f 93/5/6 156/5/6 164/5/6
f 156/2/6 157/2/6 165/2/6
f 164/5/6 156/5/6 165/5/6
f 158/5/6 159/5/6 166/5/6
f 165/2/6 157/2/6 166/2/6
f 157/5/6 158/5/6 166/5/6
f 159/5/6 160/5/6 166/5/6
f 160/2/6 161/2/6 167/2/6
f 166/5/6 160/5/6 167/5/6
f 161/5/6 162/5/6 168/5/6
f 167/2/6 161/2/6 168/2/6
f 168/5/6 162/5/6 169/5/6
f 169/5/6 162/5/6 170/5/6
f 162/2/6 163/2/6 171/2/6
f 170/5/6 162/5/6 171/5/6
f 163/2/6 152/2/6 172/2/6
f 171/2/6 163/2/6 172/2/6
f 154/5/6 155/5/6 172/5/6
f 152/5/6 153/5/6 172/5/6
f 153/5/6 154/5/6 172/5/6
f 172/5/6 155/5/6 173/5/6
f 173/5/6 155/5/6 174/5/6
f 155/2/6 147/2/6 175/2/6
f 174/5/6 155/5/6 175/5/6
f 147/5/6 94/5/6 176/5/6
f 175/2/6 147/2/6 176/2/6
f 176/5/6 94/5/6 177/5/6
f 169/5/6 170/5/6 178/5/6
f 170/2/6 171/2/6 179/2/6
f 178/5/6 170/5/6 179/5/6
f 171/5/6 172/5/6 180/5/6
f 179/2/6 171/2/6 180/2/6
f 172/5/6 173/5/6 180/5/6
f 93/5/6 164/5/6 181/5/6
f 164/2/6 165/2/6 182/2/6
f 181/5/6 164/5/6 182/5/6
f 167/5/6 168/5/6 183/5/6
f 182/2/6 165/2/6 183/2/6
f 166/5/6 167/5/6 183/5/6
f 165/5/6 166/5/6 183/5/6
f 93/5/6 181/5/6 184/5/6
f 181/2/6 182/2/6 185/2/6
f 184/5/6 181/5/6 185/5/6
f 182/5/6 183/5/6 186/5/6
f 185/2/6 182/2/6 186/2/6
f 183/5/6 168/5/6 187/5/6
f 186/5/6 183/5/6 187/5/6
f 168/2/6 169/2/6 187/2/6
f 169/5/6 178/5/6 188/5/6
f 187/2/6 169/2/6 188/2/6
f 188/5/6 178/5/6 189/5/6
f 189/5/6 178/5/6 190/5/6
f 178/2/6 179/2/6 191/2/6
f 190/5/6 178/5/6 191/5/6
f 179/5/6 180/5/6 192/5/6
f 191/2/6 179/2/6 192/2/6
f 176/2/6 177/2/6 193/2/6
f 174/5/6 175/5/6 193/5/6
f 175/5/6 176/5/6 193/5/6
f 177/5/6 94/5/6 194/5/6
f 193/2/6 177/2/6 194/2/6
f 194/5/6 94/5/6 195/5/6
f 186/5/6 187/5/6 196/5/6
f 185/5/6 186/5/6 196/5/6
f 188/2/6 189/2/6 196/2/6
f 187/5/6 188/5/6 196/5/6
f 189/5/6 190/5/6 197/5/6
f 196/2/6 189/2/6 197/2/6
f 197/5/6 190/5/6 198/5/6
f 198/5/6 190/5/6 199/5/6
f 190/2/6 191/2/6 200/2/6
f 199/5/6 190/5/6 200/5/6
f 191/5/6 192/5/6 201/5/6
f 200/2/6 191/2/6 201/2/6
f 93/5/6 184/5/6 202/5/6
f 184/2/6 185/2/6 203/2/6
f 202/5/6 184/5/6 203/5/6
f 185/5/6 196/5/6 204/5/6
f 203/2/6 185/2/6 204/2/6
f 196/5/6 197/5/6 204/5/6
f 197/2/6 198/2/6 205/2/6
f 204/5/6 197/5/6 205/5/6
f 198/5/6 199/5/6 206/5/6
f 205/2/6 198/2/6 206/2/6
f 206/5/6 199/5/6 207/5/6
f 207/5/6 199/5/6 208/5/6
f 199/2/6 200/2/6 209/2/6
f 208/5/6 199/5/6 209/5/6
f 200/5/6 201/5/6 210/5/6
f 209/2/6 200/2/6 210/2/6
f 192/5/6 180/5/6 211/5/6
f 210/5/6 201/5/6 211/5/6
f 201/5/6 192/5/6 211/5/6
f 180/5/6 173/5/6 211/5/6
f 211/5/6 173/5/6 212/5/6
f 194/2/6 195/2/6 213/2/6
f 193/5/6 194/5/6 213/5/6
f 195/5/6 94/5/6 214/5/6
f 213/2/6 195/2/6 214/2/6
f 214/5/6 94/5/6 215/5/6
f 207/5/6 208/5/6 216/5/6
f 206/2/6 207/2/6 216/2/6
f 216/5/6 208/5/6 217/5/6
f 217/5/6 208/5/6 218/5/6
f 208/2/6 209/2/6 219/2/6
f 218/5/6 208/5/6 219/5/6
f 209/5/6 210/5/6 220/5/6
f 219/2/6 209/2/6 220/2/6
f 210/5/6 211/5/6 220/5/6
f 220/5/6 211/5/6 221/5/6
f 212/5/6 173/5/6 222/5/6
f 222/5/6 173/5/6 223/5/6
f 223/5/6 173/5/6 224/5/6
f 193/5/6 213/5/6 225/5/6
f 213/5/6 214/5/6 225/5/6
f 214/2/6 215/2/6 226/2/6
f 225/5/6 214/5/6 226/5/6
f 215/5/6 94/5/6 227/5/6
f 226/2/6 215/2/6 227/2/6
f 205/5/6 206/5/6 228/5/6
f 204/5/6 205/5/6 228/5/6
f 203/5/6 204/5/6 228/5/6
f 216/2/6 217/2/6 228/2/6
f 206/2/6 216/2/6 228/2/6
f 217/5/6 218/5/6 229/5/6
f 228/2/6 217/2/6 229/2/6
f 229/5/6 218/5/6 230/5/6
f 230/5/6 218/5/6 231/5/6
f 218/2/6 219/2/6 232/2/6
f 231/5/6 218/5/6 232/5/6
f 220/5/6 221/5/6 233/5/6
f 232/2/6 219/2/6 233/2/6
f 222/5/6 223/5/6 233/5/6
f 221/5/6 222/5/6 233/5/6
f 219/5/6 220/5/6 233/5/6
f 225/2/6 226/2/6 234/2/6
f 193/5/6 225/5/6 234/5/6
f 226/5/6 227/5/6 235/5/6
f 234/2/6 226/2/6 235/2/6
f 227/5/6 94/5/6 236/5/6
f 235/5/6 227/5/6 236/5/6
f 229/2/6 230/2/6 237/2/6
f 228/5/6 229/5/6 237/5/6
f 230/5/6 231/5/6 238/5/6
f 237/2/6 230/2/6 238/2/6
f 238/5/6 231/5/6 239/5/6
f 239/5/6 231/5/6 240/5/6
f 231/2/6 232/2/6 241/2/6
f 240/5/6 231/5/6 241/5/6
f 232/5/6 233/5/6 242/5/6
f 241/2/6 232/2/6 242/2/6
f 233/5/6 223/5/6 243/5/6
f 242/5/6 233/5/6 243/5/6
f 224/5/6 173/5/6 244/5/6
f 237/5/6 238/5/6 245/5/6
f 238/2/6 239/2/6 245/2/6
f 239/5/6 240/5/6 246/5/6
f 245/2/6 239/2/6 246/2/6
f 246/5/6 240/5/6 247/5/6
f 247/5/6 240/5/6 248/5/6
f 240/2/6 241/2/6 249/2/6
f 248/5/6 240/5/6 249/5/6
f 242/5/6 243/5/6 250/5/6
f 249/2/6 241/2/6 250/2/6
f 241/5/6 242/5/6 250/5/6
f 243/5/6 244/5/6 250/5/6
f 246/2/6 247/2/6 251/2/6
f 245/5/6 246/5/6 251/5/6
f 247/5/6 248/5/6 252/5/6
f 251/2/6 247/2/6 252/2/6
f 248/2/6 249/2/6 253/2/6
f 252/5/6 248/5/6 253/5/6
f 249/5/6 250/5/6 254/5/6
f 253/2/6 249/2/6 254/2/6
f 250/5/6 244/5/6 255/5/6
f 254/5/6 250/5/6 255/5/6
f 244/5/6 173/5/6 255/5/6
f 174/5/6 193/5/6 256/5/6
f 234/5/6 235/5/6 256/5/6
f 193/5/6 234/5/6 256/5/6
f 251/5/6 252/5/6 257/5/6
f 252/2/6 253/2/6 257/2/6
f 255/5/6 256/5/6 258/5/6
f 257/2/6 253/2/6 258/2/6
f 254/5/6 255/5/6 258/5/6
f 253/5/6 254/5/6 258/5/6
f 93/5/6 202/5/6 259/5/6
f 202/2/6 203/2/6 259/2/6
f 251/5/6 257/5/6 260/5/6
f 259/2/6 203/2/6 260/2/6
f 237/5/6 245/5/6 260/5/6
f 228/5/6 237/5/6 260/5/6
f 203/5/6 228/5/6 260/5/6
f 257/5/6 258/5/6 260/5/6
f 245/5/6 251/5/6 260/5/6
f 260/5/6 258/5/6 261/5/6
f 258/5/6 256/5/6 262/5/6
f 261/5/6 258/5/6 262/5/6
f 256/5/6 235/5/6 262/5/6
f 235/2/6 236/2/6 263/2/6
f 262/5/6 235/5/6 263/5/6
f 236/5/6 94/5/6 264/5/6
f 263/2/6 236/2/6 264/2/6
f 260/2/6 261/2/6 265/2/6
f 259/5/6 260/5/6 265/5/6
f 261/5/6 262/5/6 266/5/6
f 265/2/6 261/2/6 266/2/6
f 266/5/6 262/5/6 267/5/6
f 265/5/6 266/5/6 268/5/6
f 266/2/6 267/2/6 268/2/6
f 267/5/6 262/5/6 269/5/6
f 268/2/6 267/2/6 269/2/6
f 269/5/6 262/5/6 270/5/6
f 270/5/6 262/5/6 271/5/6
f 271/5/6 262/5/6 272/5/6
f 262/2/6 263/2/6 273/2/6
f 272/5/6 262/5/6 273/5/6
f 263/5/6 264/5/6 274/5/6
f 273/2/6 263/2/6 274/2/6
f 270/5/6 271/5/6 275/5/6
f 272/5/6 273/5/6 276/5/6
f 273/5/6 274/5/6 276/5/6
f 276/5/6 274/5/6 277/5/6
f 274/5/6 264/5/6 278/5/6
f 277/5/6 274/5/6 278/5/6
f 268/5/6 269/5/6 279/5/6
f 269/2/6 270/2/6 279/2/6
f 276/5/6 277/5/6 280/5/6
f 279/2/6 270/2/6 280/2/6
f 270/5/6 275/5/6 280/5/6
f 275/5/6 276/5/6 280/5/6
f 280/5/6 277/5/6 281/5/6
f 279/5/6 280/5/6 282/5/6
f 280/2/6 281/2/6 282/2/6
f 281/5/6 277/5/6 283/5/6
f 282/2/6 281/2/6 283/2/6
f 283/5/6 277/5/6 284/5/6
f 284/5/6 277/5/6 285/5/6
f 277/2/6 278/2/6 286/2/6
f 285/5/6 277/5/6 286/5/6
f 278/5/6 264/5/6 287/5/6
f 286/2/6 278/2/6 287/2/6
f 282/5/6 283/5/6 288/5/6
f 283/2/6 284/2/6 288/2/6
f 284/5/6 285/5/6 289/5/6
f 288/2/6 284/2/6 289/2/6
f 289/5/6 285/5/6 290/5/6
f 290/5/6 285/5/6 291/5/6
f 285/2/6 286/2/6 292/2/6
f 291/5/6 285/5/6 292/5/6
f 286/5/6 287/5/6 293/5/6
f 292/2/6 286/2/6 293/2/6
f 288/5/6 289/5/6 294/5/6
f 289/2/6 290/2/6 294/2/6
f 290/5/6 291/5/6 295/5/6
f 294/2/6 290/2/6 295/2/6
f 295/5/6 291/5/6 296/5/6
f 296/5/6 291/5/6 297/5/6
f 291/2/6 292/2/6 298/2/6
f 297/5/6 291/5/6 298/5/6
f 292/5/6 293/5/6 299/5/6
f 298/2/6 292/2/6 299/2/6
f 296/5/6 297/5/6 300/5/6
f 297/2/6 298/2/6 301/2/6
f 300/5/6 297/5/6 301/5/6
f 298/5/6 299/5/6 302/5/6
f 301/2/6 298/2/6 302/2/6
f 294/5/6 295/5/6 303/5/6
f 295/2/6 296/2/6 303/2/6
f 296/5/6 300/5/6 304/5/6
f 303/2/6 296/2/6 304/2/6
f 304/5/6 300/5/6 305/5/6
f 305/5/6 300/5/6 306/5/6
f 300/2/6 301/2/6 307/2/6
f 306/5/6 300/5/6 307/5/6
f 301/5/6 302/5/6 308/5/6
f 307/2/6 301/2/6 308/2/6
f 303/5/6 304/5/6 309/5/6
f 304/2/6 305/2/6 309/2/6
f 305/5/6 306/5/6 310/5/6
f 309/2/6 305/2/6 310/2/6
f 310/5/6 306/5/6 311/5/6
f 311/5/6 306/5/6 312/5/6
f 306/2/6 307/2/6 313/2/6
f 312/5/6 306/5/6 313/5/6
f 307/5/6 308/5/6 314/5/6
f 313/2/6 307/2/6 314/2/6
f 309/5/6 310/5/6 315/5/6
f 310/2/6 311/2/6 315/2/6
f 311/5/6 312/5/6 316/5/6
f 315/2/6 311/2/6 316/2/6
f 316/5/6 312/5/6 317/5/6
f 317/5/6 312/5/6 318/5/6
f 312/2/6 313/2/6 319/2/6
f 318/5/6 312/5/6 319/5/6
f 313/5/6 314/5/6 320/5/6
f 319/2/6 313/2/6 320/2/6
f 315/5/6 316/5/6 321/5/6
f 316/2/6 317/2/6 321/2/6
f 317/5/6 318/5/6 322/5/6
f 321/2/6 317/2/6 322/2/6
f 322/5/6 318/5/6 323/5/6
f 323/5/6 318/5/6 324/5/6
f 318/2/6 319/2/6 325/2/6
f 324/5/6 318/5/6 325/5/6
f 319/5/6 320/5/6 326/5/6
f 325/2/6 319/2/6 326/2/6
f 321/5/6 322/5/6 327/5/6
f 322/2/6 323/2/6 327/2/6
f 323/5/6 324/5/6 328/5/6
f 327/2/6 323/2/6 328/2/6
f 328/5/6 324/5/6 329/5/6
f 329/5/6 324/5/6 330/5/6
f 324/2/6 325/2/6 331/2/6
f 330/5/6 324/5/6 331/5/6
f 325/5/6 326/5/6 332/5/6
f 331/2/6 325/2/6 332/2/6
f 327/5/6 328/5/6 333/5/6
f 328/2/6 329/2/6 333/2/6
f 329/5/6 330/5/6 334/5/6
f 333/2/6 329/2/6 334/2/6
f 334/5/6 330/5/6 335/5/6
f 335/5/6 330/5/6 336/5/6
f 330/2/6 331/2/6 337/2/6
f 336/5/6 330/5/6 337/5/6
f 331/5/6 332/5/6 338/5/6
f 337/2/6 331/2/6 338/2/6
f 333/5/6 334/5/6 339/5/6
f 334/2/6 335/2/6 339/2/6
f 335/5/6 336/5/6 340/5/6
f 339/2/6 335/2/6 340/2/6
f 340/5/6 336/5/6 341/5/6
f 341/5/6 336/5/6 342/5/6
f 336/2/6 337/2/6 343/2/6
f 342/5/6 336/5/6 343/5/6
f 337/5/6 338/5/6 344/5/6
f 343/2/6 337/2/6 344/2/6
f 339/5/6 340/5/6 345/5/6
f 340/2/6 341/2/6 345/2/6
f 341/5/6 342/5/6 346/5/6
f 345/2/6 341/2/6 346/2/6
f 346/5/6 342/5/6 347/5/6
f 347/5/6 342/5/6 348/5/6
f 342/2/6 343/2/6 349/2/6
f 348/5/6 342/5/6 349/5/6
f 343/5/6 344/5/6 350/5/6
f 349/2/6 343/2/6 350/2/6
f 345/5/6 346/5/6 351/5/6
f 346/2/6 347/2/6 351/2/6
f 347/5/6 348/5/6 352/5/6
f 351/2/6 347/2/6 352/2/6
f 352/5/6 348/5/6 353/5/6
f 353/5/6 348/5/6 354/5/6
f 348/2/6 349/2/6 355/2/6
f 354/5/6 348/5/6 355/5/6
f 349/5/6 350/5/6 356/5/6
f 355/2/6 349/2/6 356/2/6
f 351/5/6 352/5/6 357/5/6
f 352/2/6 353/2/6 357/2/6
f 353/5/6 354/5/6 358/5/6
f 357/2/6 353/2/6 358/2/6
f 358/5/6 354/5/6 359/5/6
f 359/5/6 354/5/6 360/5/6
f 354/2/6 355/2/6 361/2/6
f 360/5/6 354/5/6 361/5/6
f 355/5/6 356/5/6 362/5/6
f 361/2/6 355/2/6 362/2/6
f 357/5/6 358/5/6 363/5/6
f 358/2/6 359/2/6 363/2/6
f 359/5/6 360/5/6 364/5/6
f 363/2/6 359/2/6 364/2/6
f 364/5/6 360/5/6 365/5/6
f 365/5/6 360/5/6 366/5/6
f 360/2/6 361/2/6 367/2/6
f 366/5/6 360/5/6 367/5/6
f 361/5/6 362/5/6 368/5/6
f 367/2/6 361/2/6 368/2/6
f 365/5/6 366/5/6 369/5/6
f 366/2/6 367/2/6 370/2/6
f 369/5/6 366/5/6 370/5/6
f 367/5/6 368/5/6 371/5/6
f 370/2/6 367/2/6 371/2/6
f 363/5/6 364/5/6 372/5/6
f 364/2/6 365/2/6 372/2/6
f 365/5/6 369/5/6 373/5/6
f 372/2/6 365/2/6 373/2/6
f 373/5/6 369/5/6 374/5/6
f 374/5/6 369/5/6 375/5/6
f 369/2/6 370/2/6 376/2/6
f 375/5/6 369/5/6 376/5/6
f 370/5/6 371/5/6 377/5/6
f 376/2/6 370/2/6 377/2/6
f 372/5/6 373/5/6 378/5/6
f 373/2/6 374/2/6 378/2/6
f 374/5/6 375/5/6 379/5/6
f 378/2/6 374/2/6 379/2/6
f 379/5/6 375/5/6 380/5/6
f 380/5/6 375/5/6 381/5/6
f 375/2/6 376/2/6 382/2/6
f 381/5/6 375/5/6 382/5/6
f 376/5/6 377/5/6 383/5/6
f 382/2/6 376/2/6 383/2/6
f 378/5/6 379/5/6 384/5/6
f 379/2/6 380/2/6 384/2/6
f 380/5/6 381/5/6 385/5/6
f 384/2/6 380/2/6 385/2/6
f 381/2/6 382/2/6 386/2/6
f 385/5/6 381/5/6 386/5/6
f 382/5/6 383/5/6 387/5/6
f 386/2/6 382/2/6 387/2/6
f 384/5/6 385/5/6 388/5/6
f 385/2/6 386/2/6 388/2/6
f 386/5/6 387/5/6 389/5/6
f 388/2/6 386/2/6 389/2/6
f 93/5/6 259/5/6 390/5/6
f 259/5/6 265/5/6 390/5/6
f 388/5/6 389/5/6 390/5/6
f 384/5/6 388/5/6 390/5/6
f 268/5/6 279/5/6 390/5/6
f 265/5/6 268/5/6 390/5/6
f 288/5/6 294/5/6 390/5/6
f 372/5/6 378/5/6 390/5/6
f 378/5/6 384/5/6 390/5/6
f 282/5/6 288/5/6 390/5/6
f 363/5/6 372/5/6 390/5/6
f 279/5/6 282/5/6 390/5/6
f 294/5/6 303/5/6 390/5/6
f 309/5/6 315/5/6 390/5/6
f 357/5/6 363/5/6 390/5/6
f 303/5/6 309/5/6 390/5/6
f 351/5/6 357/5/6 390/5/6
f 315/5/6 321/5/6 390/5/6
f 345/5/6 351/5/6 390/5/6
f 321/5/6 327/5/6 390/5/6
f 339/5/6 345/5/6 390/5/6
f 327/5/6 333/5/6 390/5/6
f 333/5/6 339/5/6 390/5/6
f 389/5/6 387/5/6 391/5/6
f 390/5/6 389/5/6 391/5/6
f 383/5/6 377/5/6 391/5/6
f 326/5/6 320/5/6 391/5/6
f 320/5/6 314/5/6 391/5/6
f 332/5/6 326/5/6 391/5/6
f 314/5/6 308/5/6 391/5/6
f 338/5/6 332/5/6 391/5/6
f 308/5/6 302/5/6 391/5/6
f 344/5/6 338/5/6 391/5/6
f 350/5/6 344/5/6 391/5/6
f 302/5/6 299/5/6 391/5/6
f 356/5/6 350/5/6 391/5/6
f 293/5/6 287/5/6 391/5/6
f 299/5/6 293/5/6 391/5/6
f 287/5/6 264/5/6 391/5/6
f 368/5/6 362/5/6 391/5/6
f 362/5/6 356/5/6 391/5/6
f 371/5/6 368/5/6 391/5/6
f 377/5/6 371/5/6 391/5/6
f 387/5/6 383/5/6 391/5/6
f 264/5/6 94/5/6 391/5/6
f 392/1/6 393/1/6 394/1/6
f 394/1/6 393/1/6 395/1/6
f 396/1/6 397/1/6 398/1/6
f 398/1/6 397/1/6 399/1/6
f 400/4/6 401/4/6 402/4/6
f 402/4/6 401/4/6 403/4/6
f 404/3/6 405/3/6 406/3/6
f 406/3/6 405/3/6 407/3/6
